<mxfile host="app.diagrams.net" modified="2023-10-31T08:04:41.451Z" agent="Mozilla/5.0 (Windows NT 10.0; Win64; x64) AppleWebKit/537.36 (KHTML, like Gecko) Chrome/118.0.0.0 Safari/537.36" etag="FpBGaMH4LR31jRC5Jeav" version="22.0.0" type="device">
  <diagram name="Page-1" id="aGpszT-mSVqogJY-ignf">
    <mxGraphModel dx="2084" dy="1117" grid="1" gridSize="10" guides="1" tooltips="1" connect="1" arrows="1" fold="1" page="1" pageScale="1" pageWidth="850" pageHeight="1100" math="0" shadow="0">
      <root>
        <mxCell id="0" />
        <mxCell id="1" parent="0" />
        <mxCell id="8mkiNm_IFKx9rczYBY-x-1" value="" style="image;sketch=0;aspect=fixed;html=1;points=[];align=center;fontSize=12;image=img/lib/mscae/Person.svg;" vertex="1" parent="1">
          <mxGeometry x="-810" y="160" width="67" height="90.54" as="geometry" />
        </mxCell>
        <mxCell id="8mkiNm_IFKx9rczYBY-x-2" value="" style="image;sketch=0;aspect=fixed;html=1;points=[];align=center;fontSize=12;image=img/lib/mscae/Person.svg;" vertex="1" parent="1">
          <mxGeometry x="-810" y="390" width="67" height="90.54" as="geometry" />
        </mxCell>
        <mxCell id="8mkiNm_IFKx9rczYBY-x-3" value="" style="image;sketch=0;aspect=fixed;html=1;points=[];align=center;fontSize=12;image=img/lib/mscae/Person.svg;" vertex="1" parent="1">
          <mxGeometry x="-810" y="610" width="67" height="90.54" as="geometry" />
        </mxCell>
        <mxCell id="8mkiNm_IFKx9rczYBY-x-4" value="&lt;font style=&quot;font-size: 19px;&quot;&gt;k8s-LoadBalncer&lt;br&gt;Service&lt;/font&gt;" style="rounded=1;whiteSpace=wrap;html=1;" vertex="1" parent="1">
          <mxGeometry x="-490" y="375.27" width="180" height="120" as="geometry" />
        </mxCell>
        <mxCell id="8mkiNm_IFKx9rczYBY-x-5" value="" style="endArrow=classic;html=1;rounded=0;entryX=-0.017;entryY=0.806;entryDx=0;entryDy=0;entryPerimeter=0;" edge="1" parent="1" target="8mkiNm_IFKx9rczYBY-x-4">
          <mxGeometry width="50" height="50" relative="1" as="geometry">
            <mxPoint x="-710" y="650" as="sourcePoint" />
            <mxPoint x="-410" y="540" as="targetPoint" />
          </mxGeometry>
        </mxCell>
        <mxCell id="8mkiNm_IFKx9rczYBY-x-6" value="" style="endArrow=classic;html=1;rounded=0;entryX=0;entryY=0.5;entryDx=0;entryDy=0;" edge="1" parent="1" target="8mkiNm_IFKx9rczYBY-x-4">
          <mxGeometry width="50" height="50" relative="1" as="geometry">
            <mxPoint x="-710" y="435" as="sourcePoint" />
            <mxPoint x="-410" y="540" as="targetPoint" />
          </mxGeometry>
        </mxCell>
        <mxCell id="8mkiNm_IFKx9rczYBY-x-7" value="" style="endArrow=classic;html=1;rounded=0;entryX=0;entryY=0;entryDx=0;entryDy=0;" edge="1" parent="1" target="8mkiNm_IFKx9rczYBY-x-4">
          <mxGeometry width="50" height="50" relative="1" as="geometry">
            <mxPoint x="-720" y="220" as="sourcePoint" />
            <mxPoint x="-410" y="540" as="targetPoint" />
          </mxGeometry>
        </mxCell>
        <mxCell id="8mkiNm_IFKx9rczYBY-x-8" value="" style="shape=ext;double=1;rounded=0;whiteSpace=wrap;html=1;fillColor=default;" vertex="1" parent="1">
          <mxGeometry x="-200" y="330" width="390" height="199.73" as="geometry" />
        </mxCell>
        <mxCell id="8mkiNm_IFKx9rczYBY-x-9" value="&lt;font size=&quot;1&quot; style=&quot;&quot;&gt;&lt;b style=&quot;font-size: 20px;&quot;&gt;HorizontalPodAutoscaler&lt;/b&gt;&lt;/font&gt;" style="text;html=1;align=center;verticalAlign=middle;resizable=0;points=[];autosize=1;strokeColor=none;fillColor=none;" vertex="1" parent="1">
          <mxGeometry x="-145" y="330" width="260" height="40" as="geometry" />
        </mxCell>
        <mxCell id="8mkiNm_IFKx9rczYBY-x-10" value="&lt;b&gt;&lt;font style=&quot;font-size: 21px;&quot;&gt;Deployment&lt;/font&gt;&lt;/b&gt;" style="rounded=0;whiteSpace=wrap;html=1;" vertex="1" parent="1">
          <mxGeometry x="-130" y="395.27" width="230" height="80" as="geometry" />
        </mxCell>
        <mxCell id="8mkiNm_IFKx9rczYBY-x-13" value="&lt;font style=&quot;font-size: 18px;&quot;&gt;Pod n&lt;/font&gt;" style="rounded=0;whiteSpace=wrap;html=1;" vertex="1" parent="1">
          <mxGeometry x="300" y="540" width="180" height="80" as="geometry" />
        </mxCell>
        <mxCell id="8mkiNm_IFKx9rczYBY-x-14" value="&lt;font style=&quot;font-size: 17px;&quot;&gt;Pod 2&lt;/font&gt;" style="rounded=0;whiteSpace=wrap;html=1;" vertex="1" parent="1">
          <mxGeometry x="300" y="365" width="180" height="80" as="geometry" />
        </mxCell>
        <mxCell id="8mkiNm_IFKx9rczYBY-x-15" value="&lt;font style=&quot;font-size: 17px;&quot;&gt;Pod 1&lt;/font&gt;" style="rounded=0;whiteSpace=wrap;html=1;" vertex="1" parent="1">
          <mxGeometry x="300" y="200" width="180" height="80" as="geometry" />
        </mxCell>
        <mxCell id="8mkiNm_IFKx9rczYBY-x-16" value="" style="endArrow=classic;html=1;rounded=0;entryX=0;entryY=1;entryDx=0;entryDy=0;exitX=1;exitY=0.25;exitDx=0;exitDy=0;" edge="1" parent="1" source="8mkiNm_IFKx9rczYBY-x-10" target="8mkiNm_IFKx9rczYBY-x-15">
          <mxGeometry width="50" height="50" relative="1" as="geometry">
            <mxPoint x="-100" y="570" as="sourcePoint" />
            <mxPoint x="-50" y="520" as="targetPoint" />
          </mxGeometry>
        </mxCell>
        <mxCell id="8mkiNm_IFKx9rczYBY-x-17" value="" style="endArrow=classic;html=1;rounded=0;entryX=0;entryY=0.5;entryDx=0;entryDy=0;exitX=1;exitY=0.5;exitDx=0;exitDy=0;" edge="1" parent="1" source="8mkiNm_IFKx9rczYBY-x-10" target="8mkiNm_IFKx9rczYBY-x-14">
          <mxGeometry width="50" height="50" relative="1" as="geometry">
            <mxPoint x="-100" y="570" as="sourcePoint" />
            <mxPoint x="-50" y="520" as="targetPoint" />
          </mxGeometry>
        </mxCell>
        <mxCell id="8mkiNm_IFKx9rczYBY-x-18" value="" style="endArrow=classic;html=1;rounded=0;entryX=0;entryY=0.5;entryDx=0;entryDy=0;exitX=1;exitY=1;exitDx=0;exitDy=0;" edge="1" parent="1" source="8mkiNm_IFKx9rczYBY-x-10" target="8mkiNm_IFKx9rczYBY-x-13">
          <mxGeometry width="50" height="50" relative="1" as="geometry">
            <mxPoint x="-100" y="570" as="sourcePoint" />
            <mxPoint x="-50" y="520" as="targetPoint" />
          </mxGeometry>
        </mxCell>
        <mxCell id="8mkiNm_IFKx9rczYBY-x-19" value="&lt;font size=&quot;1&quot; style=&quot;&quot;&gt;&lt;b style=&quot;font-size: 40px;&quot;&gt;...&lt;/b&gt;&lt;/font&gt;" style="text;html=1;align=center;verticalAlign=middle;resizable=0;points=[];autosize=1;strokeColor=none;fillColor=none;" vertex="1" parent="1">
          <mxGeometry x="350" y="445" width="60" height="60" as="geometry" />
        </mxCell>
        <mxCell id="8mkiNm_IFKx9rczYBY-x-20" value="" style="endArrow=classic;html=1;rounded=0;exitX=1;exitY=0.5;exitDx=0;exitDy=0;entryX=0.003;entryY=0.546;entryDx=0;entryDy=0;entryPerimeter=0;" edge="1" parent="1" source="8mkiNm_IFKx9rczYBY-x-4" target="8mkiNm_IFKx9rczYBY-x-8">
          <mxGeometry width="50" height="50" relative="1" as="geometry">
            <mxPoint x="-100" y="550" as="sourcePoint" />
            <mxPoint x="-50" y="500" as="targetPoint" />
          </mxGeometry>
        </mxCell>
      </root>
    </mxGraphModel>
  </diagram>
</mxfile>
